<svg width="194.3030303030303" height="28" viewBox="0 0 230 34" fill="white" stroke="white" xmlns="http://www.w3.org/2000/svg">
  <path d="M19.3161 24.0307L14.7912 28.5557L5.63281 19.3973L10.1578 14.8724L14.6827 19.3973L19.3161 24.0307Z" stroke-width="0.25" stroke-miterlimit="10"></path>
  <path d="M23.8415 10.239L19.3166 14.764L10.1582 5.60559L14.6832 1.08063L19.3166 5.71403L23.8415 10.239Z" stroke-width="0.25" stroke-miterlimit="10"></path>
  <path d="M14.7918 10.239L5.6334 19.3974L1 14.764L5.52497 10.239L10.1584 5.60559L14.7918 10.239Z" stroke-width="0.25" stroke-miterlimit="10"></path>
  <path d="M37.6331 14.764L32.9997 19.3974L28.4748 14.8724L23.8414 10.239L19.3164 5.71403L23.9498 1.08063L37.6331 14.764Z" stroke-width="0.25" stroke-miterlimit="10"></path>
  <path d="M33.0013 19.3973L28.4763 23.9223L19.3179 33.0807L14.793 28.5557L28.4763 14.8724L33.0013 19.3973Z" stroke-width="0.25" stroke-miterlimit="10"></path>
  <path d="M48.2555 24.9194H51.569V12.897H51.6676L56.4716 24.9194H58.812L63.6037 12.897H63.7146V24.9194H67.0281V7.14451H62.7291L57.6788 19.9183H57.6049L52.5545 7.14451H48.2555V24.9194ZM75.0299 24.9194H86.8059V21.8522H78.7499V17.3808H86.3501V14.4737H78.7499V10.2117H86.8059V7.14451H75.0299V24.9194ZM98.7864 24.9194H102.506V10.2117H107.655V7.14451H93.6498V10.2117H98.7864V24.9194ZM111.21 24.9194H115.115L116.458 20.6081H122.74L124.083 24.9194H127.987L121.791 7.14451H117.419L111.21 24.9194ZM119.562 10.5936H119.636L121.878 17.8242H117.32L119.562 10.5936ZM141.902 25.2273C146.201 25.2273 149.317 22.5297 149.662 18.7481L149.674 18.6126H146.053L146.028 18.7357C145.548 20.8421 144.045 22.0739 141.902 22.0739C139.056 22.0739 137.233 19.7581 137.233 16.0135V16.0011C137.233 12.2811 139.056 9.98997 141.902 9.98997C144.119 9.98997 145.573 11.271 145.991 13.2296L146.041 13.439H149.662L149.65 13.3281C149.305 9.55884 146.213 6.83656 141.902 6.83656C136.716 6.83656 133.439 10.2856 133.439 16.0135V16.0258C133.439 21.7536 136.704 25.2273 141.902 25.2273ZM155.274 24.9194H159.179L160.522 20.6081H166.804L168.146 24.9194H172.051L165.855 7.14451H161.482L155.274 24.9194ZM163.626 10.5936H163.7L165.942 17.8242H161.384L163.626 10.5936ZM178.92 24.9194H182.64V18.4771H185.621L188.934 24.9194H193.147L189.402 17.9228C191.373 17.1467 192.617 15.2005 192.617 12.8601V12.8354C192.617 9.26321 190.252 7.14451 186.261 7.14451H178.92V24.9194ZM182.64 15.6562V10.0516H185.806C187.641 10.0516 188.811 11.1355 188.811 12.8354V12.8601C188.811 14.6092 187.703 15.6562 185.855 15.6562H182.64ZM200.126 24.9194H206.914C212.247 24.9194 215.388 21.6058 215.388 15.9642V15.9396C215.388 10.3102 212.235 7.14451 206.914 7.14451H200.126V24.9194ZM203.846 21.8399V10.2117H206.47C209.734 10.2117 211.594 12.2442 211.594 15.9519V15.9765C211.594 19.8197 209.796 21.8399 206.47 21.8399H203.846Z"></path>
</svg>